<svg xmlns="http://www.w3.org/2000/svg" viewBox="0 0 291 105" fill="none">
  <rect width="290" height="104" transform="translate(0.945312 0.730469)" fill="transparent" />
  <!-- Все элементы теперь белые, оранжевые оставлены или сделаны светло-оранжевыми -->
  <path d="M46.9453 30.7305H58.4453V72.7305H46.9453V30.7305Z" fill="#FFFFFF"/>
  <path d="M78.4453 30.7305H89.9453V72.7305H78.4453V30.7305Z" fill="#FFFFFF"/>
  <path d="M109.945 30.7305H121.445V72.7305H109.945V30.7305Z" fill="#FFFFFF"/>
  <path d="M142.445 30.7305H153.945V72.7305H142.445V30.7305Z" fill="#FFFFFF"/>
  <path d="M174.945 30.7305H186.445V72.7305H174.945V30.7305Z" fill="#FFFFFF"/>
  <path d="M207.445 30.7305H218.945V72.7305H207.445V30.7305Z" fill="#FFFFFF"/>
  <path d="M239.945 30.7305H251.445V72.7305H239.945V30.7305Z" fill="#FFFFFF"/>
  <path d="M46.9453 82.7305H251.445V94.7305H46.9453V82.7305Z" fill="#FFFFFF"/>
  <!-- Оранжевые элементы оставляем оранжевыми или делаем светло-оранжевыми -->
  <path d="M30.4453 30.7305H41.9453V72.7305H30.4453V30.7305Z" fill="#FFB84D"/>
  <path d="M15.4453 30.7305H26.9453V72.7305H15.4453V30.7305Z" fill="#FFB84D"/>
  <path d="M0.945312 30.7305H12.4453V72.7305H0.945312V30.7305Z" fill="#FFB84D"/>
  <path d="M263.945 30.7305H275.445V72.7305H263.945V30.7305Z" fill="#FFB84D"/>
  <path d="M278.945 30.7305H290.445V72.7305H278.945V30.7305Z" fill="#FFB84D"/>
</svg>