<svg xmlns="http://www.w3.org/2000/svg" viewBox="0 0 120 120" width="120" height="120">
  <circle cx="60" cy="60" r="44" fill="none" stroke="#FF8600" stroke-opacity="0.25" stroke-width="1.6" stroke-dasharray="3 6"/>
  <text x="60" y="61" text-anchor="middle" dominant-baseline="central" font-family="'Golos Text', Arial, sans-serif" font-weight="700" font-size="34" fill="#FF8600">360</text>
  <g>
    <animateTransform attributeName="transform" type="rotate" from="0 60 60" to="360 60 60" dur="12s" repeatCount="indefinite"/>
    <g transform="translate(60 16)">
      <g>
        <animateTransform attributeName="transform" type="rotate" from="0 0 0" to="-360 0 0" dur="12s" repeatCount="indefinite"/>
        <g transform="scale(0.72) translate(-12.308 -17.376)">
          <path fill="#FF8600" d="M15.6928 25.1513C16.5848 27.4544 17.3223 29.3584 17.5741 30.0912C18.2693 32.1137 18.0113 33.4108 17.2247 33.9349C16.0746 34.7012 14.5878 34.2586 12.8478 32.2768C11.6878 31.0027 8.62066 27.0001 6.15565 22.7533C4.41564 19.922 2.66139 16.4636 0.564835 12.2705C-1.19341 7.46505 1.39278 5.94631 5.0178 4.53069C8.93281 2.97351 14.5878 1.41633 17.7778 0.850086C20.0979 0.425401 23.6816 0.0564476 24.4479 1.41633C24.8829 2.2657 24.5515 3.58425 22.4661 4.93255C22.0641 5.17784 21.076 5.78855 19.8779 6.52909C17.6187 7.92543 14.6128 9.78334 13.381 10.5234C11.206 11.7974 11.3005 13.6503 11.8805 15.0659C12.8198 17.7336 14.4149 21.852 15.6928 25.1513Z"/>
        </g>
      </g>
    </g>
    <g transform="translate(60 104)">
      <g>
        <animateTransform attributeName="transform" type="rotate" from="0 0 0" to="-360 0 0" dur="12s" repeatCount="indefinite"/>
        <g transform="scale(1.15) translate(-22.656 -18.286)">
          <path fill="#FF8600" d="M24.4524 22.6397C24.9287 23.9113 25.3224 24.9626 25.4569 25.3672C25.647 25.9391 25.6593 26.6558 25.6384 26.804C25.5116 27.7011 24.5568 27.8266 23.8468 27.3976C23.5621 27.2256 23.2591 26.9575 22.9334 26.5738C22.314 25.8704 20.6764 23.6605 19.3602 21.3158C18.4312 19.7526 17.4946 17.8432 16.3751 15.5281C15.4364 12.875 16.8172 12.0364 18.7527 11.2549C20.843 10.3951 23.8624 9.53539 25.5657 9.22276C25.6328 9.21005 25.7014 9.19687 25.7713 9.18345C26.9908 8.94921 28.5869 8.64263 29.127 9.53539C29.4096 10.0027 29.1823 10.7323 28.0688 11.4767C27.8542 11.6122 27.3266 11.9494 26.6869 12.3582C25.4807 13.1291 23.8757 14.1549 23.2181 14.5635C22.0568 15.2669 22.1072 16.2899 22.4169 17.0715C22.9184 18.5444 23.7701 20.8182 24.4524 22.6397Z"/>
        </g>
      </g>
    </g>
  </g>
</svg>
